<svg xmlns="http://www.w3.org/2000/svg" aria-hidden="true" style="position:absolute;width:0;height:0;overflow:hidden">
  <defs>
    <symbol id="icon-burger" viewBox="0 0 32 32">
      <path fill="#fff" d="M2.667 8c0-.736.597-1.333 1.333-1.333h24a1.333 1.333 0 0 1 0 2.666H4A1.333 1.333 0 0 1 2.667 8zm0 8c0-.736.597-1.333 1.333-1.333h24a1.333 1.333 0 0 1 0 2.666H4A1.333 1.333 0 0 1 2.667 16zM4 22.667a1.333 1.333 0 0 0 0 2.666h24a1.333 1.333 0 0 0 0-2.666H4z" style="fill:var(--color1, #fff)"/>
    </symbol>
    <symbol id="icon-closing-icon" viewBox="0 0 32 32">
      <path fill="none" stroke="#fafafa" stroke-linecap="round" stroke-linejoin="round" stroke-width="2.667" d="M24 8 8 24M8 8l16 16" style="stroke:var(--color1, #fafafa)"/>
    </symbol>
    <symbol id="icon-facebook" viewBox="0 0 32 32">
      <path fill="#fff" d="m12.87 20.342-.481 6.769c.688 0 .987-.296 1.344-.651l3.228-3.085 6.689 4.898c1.227.684 2.091.324 2.422-1.129L30.464 6.57c.389-1.813-.656-2.522-1.851-2.078l-25.807 9.88c-1.761.684-1.735 1.666-.299 2.11l6.598 2.052L24.43 8.945c.721-.478 1.377-.213.838.264L12.871 20.34z" style="fill:var(--color1, #fff)"/>
    </symbol>
    <symbol id="icon-github" viewBox="0 0 32 32">
      <path fill="#fff" d="M16 .667C7.16.667 0 7.707 0 16.39c0 6.948 4.584 12.84 10.94 14.917.8.148 1.093-.339 1.093-.756 0-.373-.013-1.363-.02-2.673-4.451.948-5.389-2.109-5.389-2.109-.728-1.815-1.78-2.3-1.78-2.3-1.449-.975.112-.955.112-.955 1.607.109 2.451 1.62 2.451 1.62 1.427 2.404 3.745 1.709 4.66 1.308.144-1.017.556-1.709 1.013-2.103-3.553-.393-7.288-1.745-7.288-7.769 0-1.716.62-3.119 1.647-4.219-.18-.397-.72-1.996.14-4.161 0 0 1.34-.421 4.4 1.612 1.28-.349 2.64-.523 4-.531 1.36.008 2.72.181 4 .531 3.04-2.033 4.38-1.612 4.38-1.612.86 2.165.32 3.764.16 4.161 1.02 1.1 1.64 2.503 1.64 4.219 0 6.04-3.74 7.369-7.3 7.756.56.472 1.08 1.436 1.08 2.909 0 2.104-.02 3.795-.02 4.305 0 .412.28.904 1.1.747C27.42 29.223 32 23.327 32 16.39 32 7.707 24.836.667 16 .667z" style="fill:var(--color1, #fff)"/>
    </symbol>
    <symbol id="icon-instagram" viewBox="0 0 32 32">
      <path fill="none" stroke="#fff" stroke-linecap="round" stroke-linejoin="round" stroke-width="3.2" d="M22.666 2.666H9.333a6.667 6.667 0 0 0-6.667 6.667v13.333a6.667 6.667 0 0 0 6.667 6.667h13.333a6.667 6.667 0 0 0 6.667-6.667V9.333a6.667 6.667 0 0 0-6.667-6.667z" style="stroke:var(--color1, #fff)"/>
      <path fill="none" stroke="#fff" stroke-linecap="round" stroke-linejoin="round" stroke-width="3.2" d="M21.333 15.16a5.336 5.336 0 0 1-6.123 6.049 5.334 5.334 0 0 1-3.916-7.663 5.338 5.338 0 0 1 5.547-2.878 5.334 5.334 0 0 1 4.493 4.493zM23.334 8.666h.013" style="stroke:var(--color1, #fff)"/>
    </symbol>
    <symbol id="icon-m" viewBox="0 0 32 32">
      <path fill="#fff" d="M29.447 6.31 32 3.867v-.535h-8.845l-6.304 15.691L9.679 3.332H.404v.535l2.983 3.591c.291.265.443.653.404 1.044v14.111a1.607 1.607 0 0 1-.431 1.4L0 28.085v.528h9.527v-.535l-3.36-4.065a1.66 1.66 0 0 1-.463-1.4V10.408l8.363 18.212h.972l7.191-18.212v14.508c0 .383 0 .461-.251.712l-2.587 2.503v.536h12.549v-.535l-2.493-2.441a.74.74 0 0 1-.285-.712V7.023a.737.737 0 0 1 .284-.712z" style="fill:var(--color1, #fff)"/>
    </symbol>
    <symbol id="icon-reddit-1" viewBox="0 0 32 32">
      <path fill="#fff" d="M28.433 12.411c-1.011 0-1.9.425-2.555 1.088-2.407-1.691-5.652-2.779-9.248-2.895l1.868-8.541 5.948 1.355c0 1.477 1.187 2.684 2.643 2.684 1.484 0 2.677-1.239 2.677-2.717S28.581.668 27.09.668c-1.039 0-1.935.636-2.381 1.505L18.14.696c-.331-.089-.655.151-.743.487l-2.051 9.416c-3.568.151-6.779 1.237-9.193 2.929a3.563 3.563 0 0 0-2.589-1.116c-3.749 0-4.977 5.105-1.544 6.851a7.794 7.794 0 0 0-.176 1.691c0 5.735 6.367 10.381 14.184 10.381 7.851 0 14.217-4.647 14.217-10.381 0-.575-.06-1.177-.208-1.719 3.364-1.752 2.125-6.82-1.604-6.823zM7.468 19.624c0-1.505 1.187-2.717 2.677-2.717 1.456 0 2.644 1.204 2.644 2.717 0 1.479-1.187 2.684-2.644 2.684-1.484.007-2.677-1.205-2.677-2.684zm14.452 6.398c-2.455 2.491-9.381 2.491-11.837 0-.271-.24-.271-.664 0-.937a.641.641 0 0 1 .891 0c1.875 1.951 8.093 1.984 10.049 0a.641.641 0 0 1 .891 0c.276.275.276.699.007.937zm-.055-3.708c-1.456 0-2.643-1.204-2.643-2.681 0-1.505 1.187-2.717 2.643-2.717 1.484 0 2.677 1.204 2.677 2.717-.007 1.471-1.193 2.681-2.677 2.681z" style="fill:var(--color1, #fff)"/>
    </symbol>
    <symbol id="icon-twitter" viewBox="0 0 32 32">
      <path fill="#fff" d="M30.667 4a14.53 14.53 0 0 1-4.187 2.04 5.975 5.975 0 0 0-6.637-1.661A5.979 5.979 0 0 0 16 10.04v1.333a14.211 14.211 0 0 1-12-6.04s-5.333 12 6.667 17.333a15.519 15.519 0 0 1-9.333 2.667c12 6.667 26.667 0 26.667-15.333a5.966 5.966 0 0 0-.107-1.107A10.288 10.288 0 0 0 30.667 4z" style="fill:var(--color1, #fff)"/>
    </symbol>
        <symbol id="icon-vector" viewBox="0 0 31 32">
      <path fill="#fff" d="M26.64 16.191c-.903.112-1.823.169-2.754.169-6.214 0-11.856-2.559-16.02-6.727 2.539 7.189 8.231 12.777 15.318 14.92a22.136 22.136 0 0 0 4.44.86l.006-.009c1.834-2.64 2.916-5.89 2.916-9.406 0-.218-.004-.436-.012-.652a22.102 22.102 0 0 1-3.893.843z" style="fill:var(--color1, #fff)"/>
      <path fill="#fff" d="M3.904 16c0 6.578 5.09 11.91 11.368 11.91 2.302 0 4.444-.717 6.234-1.948a14.652 14.652 0 0 0 4.565 1.353c-2.764 2.895-6.582 4.686-10.799 4.686-8.435 0-15.273-7.163-15.273-16s6.838-16 15.273-16c7.543 0 13.808 5.728 15.049 13.259a14.597 14.597 0 0 1-3.834.783c-.89-5.647-5.573-9.952-11.215-9.952-6.279 0-11.368 5.332-11.368 11.91z" style="fill:var(--color1, #fff)"/>
    </symbol>
    <symbol id="icon-arrow-down" viewBox="0 0 32 32">
  <path fill="none" stroke="currentColor" stroke-linecap="round" stroke-linejoin="round" stroke-width="4" d="m8 12 8 8 8-8"/>
</symbol>
  </defs>
</svg>

